<svg xmlns="http://www.w3.org/2000/svg" width="838" height="71" fill="none" viewBox="0 0 838 71" xmlns:xlink="http://www.w3.org/1999/xlink">
  <g filter="url(#a)">
    <mask id="c" width="831" height="64" x="3.16" y="-.616" fill="#000" maskUnits="userSpaceOnUse">
      <path fill="#fff" d="M3.16-.616h831v64h-831z"/>
      <path d="M9 46.152V16.584h5.824v-5.76h5.76V5h6.528v5.824h5.76v5.76h5.888v29.568h-6.528V34.568H15.464v11.584zm6.464-18.048h16.768v-10.88h-5.76v-5.76h-5.248v5.76h-5.76zM46.5 46.152v-6.4h5.824V11.464H46.5V5h18.112v6.464h-5.888v28.288h5.888v6.4zm44.512 0v-5.76h-5.824v-6.464h6.463v5.824h16.769V28.744H91.011v-5.76h-5.823v-12.16h5.823V5h18.049v5.824h5.888v6.4h-6.528v-5.76H91.651v10.944h17.409v5.696h5.888v12.288h-5.888v5.76zm31.676 11.264V22.408h5.824v-5.824h18.048v5.824h5.888v17.984h-5.888v5.76h-17.408v11.264zm6.464-17.664h16.768V22.984h-16.768zm31.036 6.4V22.408h5.824v-5.824h18.048v5.824h5.888v6.336h-6.528v-5.76h-16.768v23.168zm37.5 0V16.584h6.464v29.568zm0-34.688V5h6.464v6.464zm23.834 34.688v-5.76h-5.76V22.984h-5.824v-6.4h5.824V5h6.4v11.584h17.536v6.4h-17.536v16.768h16.896v-5.824h6.464v6.464h-5.824v5.76zm35.615 0v-5.76h-5.824V22.408h5.824v-5.824h18.048v5.824h5.888v6.336h-6.528v-5.76h-16.768v5.12h11.648v6.464h-11.648v5.184h16.768v-5.888h6.528v6.464h-5.888v5.824zm44.488 0v-6.4h5.824V11.464h-5.824V5h18.112v6.464h-5.888v28.288h5.888v6.4zm23.938 0V16.584h18.112v5.824h5.12v-5.824h12.352v5.824h5.76v23.744h-6.4V22.984h-11.072v23.168h-6.4V22.984h-11.008v23.168zm54.261 0v-5.76H374V22.408h5.824v-5.824h18.048v5.824h5.888v17.344h5.824v6.4h-6.464v-5.76h-5.248v5.76zm.64-6.4h16.768V22.984h-16.768zm39.485 17.984v-5.76h-5.824v-6.4h6.464v5.76h16.832V40.392h-17.472v-5.824h-5.824v-12.16h5.824v-5.824h18.112v5.824h5.824v29.568h-5.824v5.76zm.64-23.808h16.832V22.984h-16.832zm34.923 12.224v-5.76h-5.824V22.408h5.824v-5.824h18.048v5.824h5.888v6.336h-6.528v-5.76h-16.768v5.12H467.8v6.464h-11.648v5.184h16.768v-5.888h6.528v6.464h-5.888v5.824zm50.312 0v-5.76H500V10.824h5.824V5h18.048v5.824h5.888v12.16h-6.528v-11.52h-16.768v28.288h16.768v-5.184h-5.76v-5.824h-5.888v-6.336h6.528v5.696h11.648v12.288h-5.888v5.76zm37.5 0v-5.76H537.5V22.408h5.824v-5.824h18.048v5.824h5.888v6.336h-6.528v-5.76h-16.768v5.12h11.648v6.464h-11.648v5.184h16.768v-5.888h6.528v6.464h-5.888v5.824zm31.676 0V16.584h23.872v5.824h5.888v23.744h-6.528V22.984h-16.768v23.168zm41.387 0v-5.76h-5.824V22.408h5.824v-5.824h18.048v5.824h5.888v6.336h-6.528v-5.76h-16.768v5.12h11.648v6.464h-11.648v5.184h16.768v-5.888h6.528v6.464h-5.888v5.824zm31.676 0V22.408h5.824v-5.824h18.048v5.824h5.888v6.336h-6.528v-5.76h-16.768v23.168zm41.386 0v-5.76h-5.824V22.408h5.824v-5.824h18.048v5.824h5.888v17.344h5.824v6.4h-6.464v-5.76h-5.248v5.76zm.64-6.4h16.768V22.984h-16.768zm41.37 6.4v-5.76h-5.76V22.984h-5.824v-6.4h5.824V5h6.4v11.584h17.536v6.4h-17.536v16.768h16.896v-5.824h6.464v6.464h-5.824v5.76zm35.615 0v-5.76h-5.824V22.408h5.824v-5.824h18.048v5.824h5.888v17.984h-5.888v5.76zm.64-6.4h16.768V22.984h-16.768zm31.036 6.4V22.408h5.824v-5.824h18.048v5.824h5.888v6.336h-6.528v-5.76h-16.768v23.168z"/>
    </mask>
    <path fill="url(#b)" d="M9 46.152V16.584h5.824v-5.76h5.76V5h6.528v5.824h5.76v5.76h5.888v29.568h-6.528V34.568H15.464v11.584zm6.464-18.048h16.768v-10.88h-5.76v-5.76h-5.248v5.76h-5.76zM46.5 46.152v-6.4h5.824V11.464H46.5V5h18.112v6.464h-5.888v28.288h5.888v6.4zm44.512 0v-5.76h-5.824v-6.464h6.463v5.824h16.769V28.744H91.011v-5.76h-5.823v-12.16h5.823V5h18.049v5.824h5.888v6.4h-6.528v-5.76H91.651v10.944h17.409v5.696h5.888v12.288h-5.888v5.76zm31.676 11.264V22.408h5.824v-5.824h18.048v5.824h5.888v17.984h-5.888v5.76h-17.408v11.264zm6.464-17.664h16.768V22.984h-16.768zm31.036 6.4V22.408h5.824v-5.824h18.048v5.824h5.888v6.336h-6.528v-5.76h-16.768v23.168zm37.5 0V16.584h6.464v29.568zm0-34.688V5h6.464v6.464zm23.834 34.688v-5.76h-5.76V22.984h-5.824v-6.4h5.824V5h6.4v11.584h17.536v6.4h-17.536v16.768h16.896v-5.824h6.464v6.464h-5.824v5.76zm35.615 0v-5.76h-5.824V22.408h5.824v-5.824h18.048v5.824h5.888v6.336h-6.528v-5.76h-16.768v5.12h11.648v6.464h-11.648v5.184h16.768v-5.888h6.528v6.464h-5.888v5.824zm44.488 0v-6.4h5.824V11.464h-5.824V5h18.112v6.464h-5.888v28.288h5.888v6.4zm23.938 0V16.584h18.112v5.824h5.12v-5.824h12.352v5.824h5.76v23.744h-6.4V22.984h-11.072v23.168h-6.4V22.984h-11.008v23.168zm54.261 0v-5.76H374V22.408h5.824v-5.824h18.048v5.824h5.888v17.344h5.824v6.4h-6.464v-5.76h-5.248v5.76zm.64-6.4h16.768V22.984h-16.768zm39.485 17.984v-5.76h-5.824v-6.4h6.464v5.76h16.832V40.392h-17.472v-5.824h-5.824v-12.16h5.824v-5.824h18.112v5.824h5.824v29.568h-5.824v5.76zm.64-23.808h16.832V22.984h-16.832zm34.923 12.224v-5.76h-5.824V22.408h5.824v-5.824h18.048v5.824h5.888v6.336h-6.528v-5.76h-16.768v5.12H467.8v6.464h-11.648v5.184h16.768v-5.888h6.528v6.464h-5.888v5.824zm50.312 0v-5.76H500V10.824h5.824V5h18.048v5.824h5.888v12.16h-6.528v-11.52h-16.768v28.288h16.768v-5.184h-5.76v-5.824h-5.888v-6.336h6.528v5.696h11.648v12.288h-5.888v5.76zm37.5 0v-5.76H537.5V22.408h5.824v-5.824h18.048v5.824h5.888v6.336h-6.528v-5.76h-16.768v5.12h11.648v6.464h-11.648v5.184h16.768v-5.888h6.528v6.464h-5.888v5.824zm31.676 0V16.584h23.872v5.824h5.888v23.744h-6.528V22.984h-16.768v23.168zm41.387 0v-5.76h-5.824V22.408h5.824v-5.824h18.048v5.824h5.888v6.336h-6.528v-5.76h-16.768v5.12h11.648v6.464h-11.648v5.184h16.768v-5.888h6.528v6.464h-5.888v5.824zm31.676 0V22.408h5.824v-5.824h18.048v5.824h5.888v6.336h-6.528v-5.76h-16.768v23.168zm41.386 0v-5.76h-5.824V22.408h5.824v-5.824h18.048v5.824h5.888v17.344h5.824v6.4h-6.464v-5.76h-5.248v5.76zm.64-6.4h16.768V22.984h-16.768zm41.37 6.4v-5.76h-5.76V22.984h-5.824v-6.4h5.824V5h6.4v11.584h17.536v6.4h-17.536v16.768h16.896v-5.824h6.464v6.464h-5.824v5.76zm35.615 0v-5.76h-5.824V22.408h5.824v-5.824h18.048v5.824h5.888v17.984h-5.888v5.76zm.64-6.4h16.768V22.984h-16.768zm31.036 6.4V22.408h5.824v-5.824h18.048v5.824h5.888v6.336h-6.528v-5.76h-16.768v23.168z"/>
    <path fill="#000" d="M9 46.152H4v5h5zm0-29.568v-5H4v5zm5.824 0v5h5v-5zm0-5.76v-5h-5v5zm5.76 0v5h5v-5zm0-5.824V0h-5v5zm6.528 0h5V0h-5zm0 5.824h-5v5h5zm5.76 0h5v-5h-5zm0 5.76h-5v5h5zm5.888 0h5v-5h-5zm0 29.568v5h5v-5zm-6.528 0h-5v5h5zm0-11.584h5v-5h-5zm-16.768 0v-5h-5v5zm0 11.584v5h5v-5zm0-18.048h-5v5h5zm16.768 0v5h5v-5zm0-10.88h5v-5h-5zm-5.76 0h-5v5h5zm0-5.76h5v-5h-5zm-5.248 0v-5h-5v5zm0 5.76v5h5v-5zm-5.76 0v-5h-5v5zM9 46.152h5V16.584H4v29.568zm0-29.568v5h5.824v-10H9zm5.824 0h5v-5.76h-10v5.76zm0-5.76v5h5.76v-10h-5.76zm5.76 0h5V5h-10v5.824zm0-5.824v5h6.528V0h-6.528zm6.528 0h-5v5.824h10V5zm0 5.824v5h5.76v-10h-5.76zm5.76 0h-5v5.76h10v-5.76zm0 5.76v5h5.888v-10h-5.888zm5.888 0h-5v29.568h10V16.584zm0 29.568v-5h-6.528v10h6.528zm-6.528 0h5V34.568h-10v11.584zm0-11.584v-5H15.464v10h16.768zm-16.768 0h-5v11.584h10V34.568zm0 11.584v-5H9v10h6.464zm0-18.048v5h16.768v-10H15.464zm16.768 0h5v-10.88h-10v10.88zm0-10.88v-5h-5.76v10h5.76zm-5.76 0h5v-5.76h-10v5.76zm0-5.76v-5h-5.248v10h5.248zm-5.248 0h-5v5.76h10v-5.76zm0 5.76v-5h-5.76v10h5.76zm-5.76 0h-5v10.88h10v-10.88zM46.5 46.152h-5v5h5zm0-6.4v-5h-5v5zm5.824 0v5h5v-5zm0-28.288h5v-5h-5zm-5.824 0h-5v5h5zM46.5 5V0h-5v5zm18.112 0h5V0h-5zm0 6.464v5h5v-5zm-5.888 0v-5h-5v5zm0 28.288h-5v5h5zm5.888 0h5v-5h-5zm0 6.4v5h5v-5zm-18.112 0h5v-6.4h-10v6.4zm0-6.4v5h5.824v-10H46.5zm5.824 0h5V11.464h-10v28.288zm0-28.288v-5H46.5v10h5.824zm-5.824 0h5V5h-10v6.464zM46.5 5v5h18.112V0H46.5zm18.112 0h-5v6.464h10V5zm0 6.464v-5h-5.888v10h5.888zm-5.888 0h-5v28.288h10V11.464zm0 28.288v5h5.888v-10h-5.888zm5.888 0h-5v6.4h10v-6.4zm0 6.4v-5H46.5v10h18.112zm26.4 0h-5v5h5zm0-5.76h5v-5h-5zm-5.824 0h-5v5h5zm0-6.464v-5h-5v5zm6.463 0h5v-5h-5zm0 5.824h-5v5h5zm16.769 0v5h5v-5zm0-11.008h5v-5h-5zm-17.409 0h-5v5h5zm0-5.76h5v-5h-5zm-5.823 0h-5v5h5zm0-12.16v-5h-5v5zm5.823 0v5h5v-5zm0-5.824V0h-5v5zm18.049 0h5V0h-5zm0 5.824h-5v5h5zm5.888 0h5v-5h-5zm0 6.4v5h5v-5zm-6.528 0h-5v5h5zm0-5.76h5v-5h-5zm-16.769 0v-5h-5v5zm0 10.944h-5v5h5zm17.409 0h5v-5h-5zm0 5.696h-5v5h5zm5.888 0h5v-5h-5zm0 12.288v5h5v-5zm-5.888 0v-5h-5v5zm0 5.76v5h5v-5zm-18.049 0h5v-5.76h-10v5.76zm0-5.76v-5h-5.823v10h5.823zm-5.823 0h5v-6.464h-10v6.464zm0-6.464v5h6.463v-10h-6.463zm6.463 0h-5v5.824h10v-5.824zm0 5.824v5h16.769v-10H91.651zm16.769 0h5V28.744h-10v11.008zm0-11.008v-5H91.011v10h17.409zm-17.409 0h5v-5.76h-10v5.76zm0-5.76v-5h-5.823v10h5.823zm-5.823 0h5v-12.16h-10v12.16zm0-12.16v5h5.823v-10h-5.823zm5.823 0h5V5h-10v5.824zm0-5.824v5h18.049V0H91.011zm18.049 0h-5v5.824h10V5zm0 5.824v5h5.888v-10h-5.888zm5.888 0h-5v6.4h10v-6.4zm0 6.4v-5h-6.528v10h6.528zm-6.528 0h5v-5.76h-10v5.76zm0-5.76v-5H91.651v10h16.769zm-16.769 0h-5v10.944h10V11.464zm0 10.944v5h17.409v-10H91.651zm17.409 0h-5v5.696h10v-5.696zm0 5.696v5h5.888v-10h-5.888zm5.888 0h-5v12.288h10V28.104zm0 12.288v-5h-5.888v10h5.888zm-5.888 0h-5v5.76h10v-5.76zm0 5.76v-5H91.011v10h18.049zm13.628 11.264h-5v5h5zm0-35.008v-5h-5v5zm5.824 0v5h5v-5zm0-5.824v-5h-5v5zm18.048 0h5v-5h-5zm0 5.824h-5v5h5zm5.888 0h5v-5h-5zm0 17.984v5h5v-5zm-5.888 0v-5h-5v5zm0 5.76v5h5v-5zm-17.408 0v-5h-5v5zm0 11.264v5h5v-5zm0-17.664h-5v5h5zm16.768 0v5h4.999v-5zm0-16.768h4.999v-5h-4.999zm-16.768 0v-5h-5v5zm-6.464 34.432h5V22.408h-10v35.008zm0-35.008v5h5.824v-10h-5.824zm5.824 0h5v-5.824h-10v5.824zm0-5.824v5h18.048v-10h-18.048zm18.048 0h-5v5.824h10v-5.824zm0 5.824v5h5.888v-10h-5.888zm5.888 0h-5v17.984h10V22.408zm0 17.984v-5h-5.888v10h5.888zm-5.888 0h-5v5.76h10v-5.76zm0 5.76v-5h-17.408v10h17.408zm-17.408 0h-5v11.264h10V46.152zm0 11.264v-5h-6.464v10h6.464zm0-17.664v5h16.768v-10h-16.768zm16.768 0h4.999V22.984h-9.999v16.768zm0-16.768v-5h-16.768v10h16.768zm-16.768 0h-5v16.768h10V22.984zm31.036 23.168h-5v5h5zm0-23.744v-5h-5v5zm5.824 0v5h5v-5zm0-5.824v-5h-5v5zm18.048 0h5v-5h-5zm0 5.824h-5v5h5zm5.888 0h5v-5h-5zm0 6.336v5h5v-5zm-6.528 0h-5v5h5zm0-5.76h4.999v-5h-4.999zm-16.768 0v-5h-5v5zm0 23.168v5h5v-5zm-6.464 0h5V22.408h-10v23.744zm0-23.744v5h5.824v-10h-5.824zm5.824 0h5v-5.824h-10v5.824zm0-5.824v5h18.048v-10h-18.048zm18.048 0h-5v5.824h10v-5.824zm0 5.824v5h5.888v-10h-5.888zm5.888 0h-5v6.336h10v-6.336zm0 6.336v-5h-6.528v10h6.528zm-6.528 0h4.999v-5.76h-9.999v5.76zm0-5.76v-5h-16.768v10h16.768zm-16.768 0h-5v23.168h10V22.984zm0 23.168v-5h-6.464v10h6.464zm31.036 0h-5v5h5zm0-29.568v-5h-5v5zm6.464 0h5v-5h-5zm0 29.568v5h5v-5zm-6.464-34.688h-5v5h5zm0-6.464V0h-5v5zm6.464 0h5V0h-5zm0 6.464v5h5v-5zm-6.464 34.688h5V16.584h-10v29.568zm0-29.568v5h6.464v-10h-6.464zm6.464 0h-5v29.568h10V16.584zm0 29.568v-5h-6.464v10h6.464zm-6.464-34.688h5V5h-10v6.464zm0-6.464v5h6.464V0h-6.464zm6.464 0h-5v6.464h10V5zm0 6.464v-5h-6.464v10h6.464zm17.369 34.688h-5v5h5zm0-5.76h5v-5h-5zm-5.759 0h-5v5h5zm0-17.408h5v-5h-5zm-5.824 0h-5v5h5zm0-6.4v-5h-5v5zm5.824 0v5h5v-5zm0-11.584V0h-5v5zm6.399 0h5V0h-5zm0 11.584h-5v5h5zm17.537 0h5v-5h-5zm0 6.4v5h5v-5zm-17.537 0v-5h-5v5zm0 16.768h-5v5h5zm16.897 0v5h5v-5zm0-5.824v-5h-5v5zm6.464 0h5v-5h-5zm0 6.464v5h5v-5zm-5.824 0v-5h-5v5zm0 5.76v5h5v-5zm-18.177 0h5v-5.76h-10v5.76zm0-5.76v-5h-5.759v10h5.759zm-5.759 0h5V22.984h-10v17.408zm0-17.408v-5h-5.824v10h5.824zm-5.824 0h5v-6.4h-10v6.4zm0-6.4v5h5.824v-10h-5.824zm5.824 0h5V5h-10v11.584zm0-11.584v5h6.399V0h-6.399zm6.399 0h-5v11.584h10V5zm0 11.584v5h17.537v-10h-17.537zm17.537 0h-5v6.4h10v-6.4zm0 6.4v-5h-17.537v10h17.537zm-17.537 0h-5v16.768h10V22.984zm0 16.768v5h16.897v-10h-16.897zm16.897 0h5v-5.824h-10v5.824zm0-5.824v5h6.464v-10h-6.464zm6.464 0h-5v6.464h10v-6.464zm0 6.464v-5h-5.824v10h5.824zm-5.824 0h-5v5.76h10v-5.76zm0 5.76v-5h-18.177v10h18.177zm17.439 0h-5v5h5zm0-5.76h5v-5h-5zm-5.825 0h-5v5h5zm0-17.984v-5h-5v5zm5.825 0v5h5v-5zm0-5.824v-5h-5v5zm18.048 0h5v-5h-5zm0 5.824h-5v5h5zm5.888 0h5v-5h-5zm0 6.336v5h5v-5zm-6.529 0h-5v5h5zm0-5.76h5v-5h-5zm-16.767 0v-5h-5v5zm0 5.12h-5v5h5zm11.647 0h5v-5h-5zm0 6.464v5h5v-5zm-11.647 0v-5h-5v5zm0 5.184h-5v5h5zm16.767 0v5h5v-5zm0-5.888v-5h-5v5zm6.529 0h5v-5h-5zm0 6.464v5h5v-5zm-5.888 0v-5h-5v5zm0 5.824v5h5v-5zm-18.048 0h5v-5.76h-10v5.76zm0-5.76v-5h-5.825v10h5.825zm-5.825 0h5V22.408h-10v17.984zm0-17.984v5h5.825v-10h-5.825zm5.825 0h5v-5.824h-10v5.824zm0-5.824v5h18.048v-10h-18.048zm18.048 0h-5v5.824h10v-5.824zm0 5.824v5h5.888v-10h-5.888zm5.888 0h-5v6.336h10v-6.336zm0 6.336v-5h-6.529v10h6.529zm-6.529 0h5v-5.76h-10v5.76zm0-5.76v-5h-16.767v10h16.767zm-16.767 0h-5v5.12h10v-5.12zm0 5.12v5h11.647v-10h-11.647zm11.647 0h-5v6.464h10v-6.464zm0 6.464v-5h-11.647v10h11.647zm-11.647 0h-5v5.184h10v-5.184zm0 5.184v5h16.767v-10h-16.767zm16.767 0h5v-5.888h-10v5.888zm0-5.888v5h6.529v-10h-6.529zm6.529 0h-5v6.464h10v-6.464zm0 6.464v-5h-5.888v10h5.888zm-5.888 0h-5v5.824h10v-5.824zm0 5.824v-5h-18.048v10h18.048zm26.44 0h-5v5h5zm0-6.4v-5h-5v5zm5.824 0v5h5v-5zm0-28.288h5v-5h-5zm-5.824 0h-5v5h5zm0-6.464V0h-5v5zm18.112 0h5V0h-5zm0 6.464v5h5v-5zm-5.888 0v-5h-5v5zm0 28.288h-5v5h5zm5.888 0h5v-5h-5zm0 6.4v5h5v-5zm-18.112 0h5v-6.4h-10v6.4zm0-6.4v5h5.824v-10h-5.824zm5.824 0h5V11.464h-10v28.288zm0-28.288v-5h-5.824v10h5.824zm-5.824 0h5V5h-10v6.464zm0-6.464v5h18.112V0h-18.112zm18.112 0h-5v6.464h10V5zm0 6.464v-5h-5.888v10h5.888zm-5.888 0h-5v28.288h10V11.464zm0 28.288v5h5.888v-10h-5.888zm5.888 0h-5v6.4h10v-6.4zm0 6.4v-5h-18.112v10h18.112zm5.825 0h-5v5h5zm0-29.568v-5h-5v5zm18.112 0h5v-5h-5zm0 5.824h-5v5h5zm5.12 0v5h5v-5zm0-5.824v-5h-5v5zm12.353 0h5v-5h-5zm0 5.824h-5v5h5zm5.759 0h5v-5h-5zm0 23.744v5h5v-5zm-6.399 0h-5v5h5zm0-23.168h5v-5h-5zm-11.072 0v-5h-5v5zm0 23.168v5h5v-5zm-6.4 0h-5v5h5zm0-23.168h5v-5h-5zm-11.008 0v-5h-5v5zm0 23.168v5h5v-5zm-6.465 0h5V16.584h-10v29.568zm0-29.568v5h18.112v-10h-18.112zm18.112 0h-5v5.824h10v-5.824zm0 5.824v5h5.12v-10h-5.12zm5.12 0h5v-5.824h-10v5.824zm0-5.824v5h12.353v-10h-12.353zm12.353 0h-5v5.824h10v-5.824zm0 5.824v5h5.759v-10h-5.759zm5.759 0h-5v23.744h10V22.408zm0 23.744v-5h-6.399v10h6.399zm-6.399 0h5V22.984h-10v23.168zm0-23.168v-5h-11.072v10h11.072zm-11.072 0h-5v23.168h10V22.984zm0 23.168v-5h-6.4v10h6.4zm-6.4 0h5V22.984h-10v23.168zm0-23.168v-5h-11.008v10h11.008zm-11.008 0h-5v23.168h10V22.984zm0 23.168v-5h-6.465v10h6.465zm47.797 0h-5v5h5zm0-5.76h5v-5h-5zm-5.824 0h-5v5h5zm0-17.984v-5h-5v5zm5.824 0v5h5v-5zm0-5.824v-5h-5v5zm18.048 0h5v-5h-5zm0 5.824h-5v5h5zm5.888 0h5v-5h-5zm0 17.344h-5v5h5zm5.824 0h5v-5h-5zm0 6.4v5h5v-5zm-6.464 0h-5v5h5zm0-5.76h5v-5h-5zm-5.248 0v-5h-5v5zm0 5.76v5h5v-5zm-17.408-6.4h-5v5h5zm16.768 0v5h5v-5zm0-16.768h5v-5h-5zm-16.768 0v-5h-5v5zm-.64 23.168h5v-5.76h-10v5.76zm0-5.76v-5H374v10h5.824zm-5.824 0h5V22.408h-10v17.984zm0-17.984v5h5.824v-10H374zm5.824 0h5v-5.824h-10v5.824zm0-5.824v5h18.048v-10h-18.048zm18.048 0h-5v5.824h10v-5.824zm0 5.824v5h5.888v-10h-5.888zm5.888 0h-5v17.344h10V22.408zm0 17.344v5h5.824v-10h-5.824zm5.824 0h-5v6.4h10v-6.4zm0 6.4v-5h-6.464v10h6.464zm-6.464 0h5v-5.76h-10v5.76zm0-5.76v-5h-5.248v10h5.248zm-5.248 0h-5v5.76h10v-5.76zm0 5.76v-5h-18.048v10h18.048zm-17.408-6.4v5h16.768v-10h-16.768zm16.768 0h5V22.984h-10v16.768zm0-16.768v-5h-16.768v10h16.768zm-16.768 0h-5v16.768h10V22.984zm39.485 34.752h-5v5h5zm0-5.76h5v-5h-5zm-5.824 0h-5v5h5zm0-6.4v-5h-5v5zm6.464 0h5v-5h-5zm0 5.76h-5v5h5zm16.832 0v5h5v-5zm0-10.944h5v-5h-5zm-17.472 0h-5v5h5zm0-5.824h5v-5h-5zm-5.824 0h-5v5h5zm0-12.16v-5h-5v5zm5.824 0v5h5v-5zm0-5.824v-5h-5v5zm18.112 0h5v-5h-5zm0 5.824h-5v5h5zm5.824 0h5v-5h-5zm0 29.568v5h5v-5zm-5.824 0v-5h-5v5zm0 5.76v5h5v-5zm-17.472-23.808h-5v5h5zm16.832 0v5h5v-5zm0-10.944h5v-5h-5zm-16.832 0v-5h-5v5zm-.64 34.752h5v-5.76h-10v5.76zm0-5.76v-5h-5.824v10h5.824zm-5.824 0h5v-6.4h-10v6.4zm0-6.4v5h6.464v-10h-6.464zm6.464 0h-5v5.76h10v-5.76zm0 5.76v5h16.832v-10h-16.832zm16.832 0h5V40.392h-10v10.944zm0-10.944v-5h-17.472v10h17.472zm-17.472 0h5v-5.824h-10v5.824zm0-5.824v-5h-5.824v10h5.824zm-5.824 0h5v-12.16h-10v12.16zm0-12.16v5h5.824v-10h-5.824zm5.824 0h5v-5.824h-10v5.824zm0-5.824v5h18.112v-10h-18.112zm18.112 0h-5v5.824h10v-5.824zm0 5.824v5h5.824v-10h-5.824zm5.824 0h-5v29.568h10V22.408zm0 29.568v-5h-5.824v10h5.824zm-5.824 0h-5v5.76h10v-5.76zm0 5.76v-5h-18.112v10h18.112zm-17.472-23.808v5h16.832v-10h-16.832zm16.832 0h5V22.984h-10v10.944zm0-10.944v-5h-16.832v10h16.832zm-16.832 0h-5v10.944h10V22.984zm34.923 23.168h-5v5h5zm0-5.76h5v-5h-5zm-5.824 0h-5v5h5zm0-17.984v-5h-5v5zm5.824 0v5h5v-5zm0-5.824v-5h-5v5zm18.048 0h5v-5h-5zm0 5.824h-5v5h5zm5.888 0h5v-5h-5zm0 6.336v5h5v-5zm-6.529 0h-5v5h5zm0-5.76h5v-5h-5zm-16.767 0v-5h-5v5zm0 5.12h-5v5h5zm11.647 0h5v-5h-5zm0 6.464v5h5v-5zm-11.647 0v-5h-5v5zm0 5.184h-5v5h5zm16.767 0v5h5v-5zm0-5.888v-5h-5v5zm6.529 0h5v-5h-5zm0 6.464v5h5v-5zm-5.888 0v-5h-5v5zm0 5.824v5h5v-5zm-18.048 0h5v-5.76h-10v5.76zm0-5.76v-5h-5.824v10h5.824zm-5.824 0h5V22.408h-10v17.984zm0-17.984v5h5.824v-10h-5.824zm5.824 0h5v-5.824h-10v5.824zm0-5.824v5h18.048v-10h-18.048zm18.048 0h-5v5.824h10v-5.824zm0 5.824v5h5.888v-10h-5.888zm5.888 0h-5v6.336h10v-6.336zm0 6.336v-5h-6.529v10h6.529zm-6.529 0h5v-5.76h-10v5.76zm0-5.76v-5h-16.767v10h16.767zm-16.767 0h-5v5.12h10v-5.12zm0 5.12v5h11.647v-10h-11.647zm11.647 0h-5v6.464h10v-6.464zm0 6.464v-5h-11.647v10h11.647zm-11.647 0h-5v5.184h10v-5.184zm0 5.184v5h16.767v-10h-16.767zm16.767 0h5v-5.888h-10v5.888zm0-5.888v5h6.529v-10h-6.529zm6.529 0h-5v6.464h10v-6.464zm0 6.464v-5h-5.888v10h5.888zm-5.888 0h-5v5.824h10v-5.824zm0 5.824v-5h-18.048v10h18.048zm32.264 0h-5v5h5zm0-5.76h5v-5h-5zm-5.824 0h-5v5h5zm0-29.568v-5h-5v5zm5.824 0v5h5v-5zm0-5.824V0h-5v5zm18.048 0h5V0h-5zm0 5.824h-5v5h5zm5.888 0h5v-5h-5zm0 12.16v5h5v-5zm-6.528 0h-5v5h5zm0-11.52h5v-5h-5zm-16.768 0v-5h-5v5zm0 28.288h-5v5h5zm16.768 0v5h5v-5zm0-5.184h5v-5h-5zm-5.76 0h-5v5h5zm0-5.824h5v-5h-5zm-5.888 0h-5v5h5zm0-6.336v-5h-5v5zm6.528 0h5v-5h-5zm0 5.696h-5v5h5zm11.648 0h5v-5h-5zm0 12.288v5h5v-5zm-5.888 0v-5h-5v5zm0 5.76v5h5v-5zm-18.048 0h5v-5.76h-10v5.76zm0-5.76v-5H500v10h5.824zm-5.824 0h5V10.824h-10v29.568zm0-29.568v5h5.824v-10H500zm5.824 0h5V5h-10v5.824zm0-5.824v5h18.048V0h-18.048zm18.048 0h-5v5.824h10V5zm0 5.824v5h5.888v-10h-5.888zm5.888 0h-5v12.16h10v-12.16zm0 12.16v-5h-6.528v10h6.528zm-6.528 0h5v-11.52h-10v11.52zm0-11.52v-5h-16.768v10h16.768zm-16.768 0h-5v28.288h10V11.464zm0 28.288v5h16.768v-10h-16.768zm16.768 0h5v-5.184h-10v5.184zm0-5.184v-5h-5.76v10h5.76zm-5.76 0h5v-5.824h-10v5.824zm0-5.824v-5h-5.888v10h5.888zm-5.888 0h5v-6.336h-10v6.336zm0-6.336v5h6.528v-10h-6.528zm6.528 0h-5v5.696h10v-5.696zm0 5.696v5h11.648v-10h-11.648zm11.648 0h-5v12.288h10V28.104zm0 12.288v-5h-5.888v10h5.888zm-5.888 0h-5v5.76h10v-5.76zm0 5.76v-5h-18.048v10h18.048zm19.452 0h-5v5h5zm0-5.76h5v-5h-5zm-5.824 0h-5v5h5zm0-17.984v-5h-5v5zm5.824 0v5h5v-5zm0-5.824v-5h-5v5zm18.048 0h5v-5h-5zm0 5.824h-5v5h5zm5.888 0h5v-5h-5zm0 6.336v5h5v-5zm-6.528 0h-5v5h5zm0-5.76h5v-5h-5zm-16.768 0v-5h-5v5zm0 5.12h-5v5h5zm11.648 0h5v-5h-5zm0 6.464v5h5v-5zm-11.648 0v-5h-5v5zm0 5.184h-5v5h5zm16.768 0v5h5v-5zm0-5.888v-5h-5v5zm6.528 0h5v-5h-5zm0 6.464v5h5v-5zm-5.888 0v-5h-5v5zm0 5.824v5h5v-5zm-18.048 0h5v-5.76h-10v5.76zm0-5.76v-5H537.5v10h5.824zm-5.824 0h5V22.408h-10v17.984zm0-17.984v5h5.824v-10H537.5zm5.824 0h5v-5.824h-10v5.824zm0-5.824v5h18.048v-10h-18.048zm18.048 0h-5v5.824h10v-5.824zm0 5.824v5h5.888v-10h-5.888zm5.888 0h-5v6.336h10v-6.336zm0 6.336v-5h-6.528v10h6.528zm-6.528 0h5v-5.76h-10v5.76zm0-5.76v-5h-16.768v10h16.768zm-16.768 0h-5v5.12h10v-5.12zm0 5.12v5h11.648v-10h-11.648zm11.648 0h-5v6.464h10v-6.464zm0 6.464v-5h-11.648v10h11.648zm-11.648 0h-5v5.184h10v-5.184zm0 5.184v5h16.768v-10h-16.768zm16.768 0h5v-5.888h-10v5.888zm0-5.888v5h6.528v-10h-6.528zm6.528 0h-5v6.464h10v-6.464zm0 6.464v-5h-5.888v10h5.888zm-5.888 0h-5v5.824h10v-5.824zm0 5.824v-5h-18.048v10h18.048zm13.628 0h-5v5h5zm0-29.568v-5h-5v5zm23.872 0h5v-5h-5zm0 5.824h-5v5h5zm5.888 0h5v-5h-5zm0 23.744v5h5v-5zm-6.528 0h-5v5h5zm0-23.168h5v-5h-5zm-16.768 0v-5h-5v5zm0 23.168v5h5v-5zm-6.464 0h5V16.584h-10v29.568zm0-29.568v5h23.872v-10H575zm23.872 0h-5v5.824h10v-5.824zm0 5.824v5h5.888v-10h-5.888zm5.888 0h-5v23.744h10V22.408zm0 23.744v-5h-6.528v10h6.528zm-6.528 0h5V22.984h-10v23.168zm0-23.168v-5h-16.768v10h16.768zm-16.768 0h-5v23.168h10V22.984zm0 23.168v-5H575v10h6.464zm34.923 0h-5v5h5zm0-5.76h5v-5h-5zm-5.824 0h-5v5h5zm0-17.984v-5h-5v5zm5.824 0v5h5v-5zm0-5.824v-5h-5v5zm18.047 0h5v-5h-5zm0 5.824h-5v5h5zm5.888 0h5v-5h-5zm0 6.336v5h5v-5zm-6.527 0h-5v5h5zm0-5.76h5v-5h-5zm-16.768 0v-5h-5v5zm0 5.12h-5v5h5zm11.648 0h5v-5h-5zm0 6.464v5h5v-5zm-11.648 0v-5h-5v5zm0 5.184h-5v5h5zm16.768 0v5h5v-5zm0-5.888v-5h-5v5zm6.527 0h5v-5h-5zm0 6.464v5h5v-5zm-5.888 0v-5h-5v5zm0 5.824v5h5v-5zm-18.047 0h5v-5.76h-10v5.76zm0-5.76v-5h-5.824v10h5.824zm-5.824 0h5V22.408h-10v17.984zm0-17.984v5h5.824v-10h-5.824zm5.824 0h5v-5.824h-10v5.824zm0-5.824v5h18.047v-10h-18.047zm18.047 0h-5v5.824h10v-5.824zm0 5.824v5h5.888v-10h-5.888zm5.888 0h-5v6.336h10v-6.336zm0 6.336v-5h-6.527v10h6.527zm-6.527 0h5v-5.76h-10v5.76zm0-5.76v-5h-16.768v10h16.768zm-16.768 0h-5v5.12h10v-5.12zm0 5.12v5h11.648v-10h-11.648zm11.648 0h-5v6.464h10v-6.464zm0 6.464v-5h-11.648v10h11.648zm-11.648 0h-5v5.184h10v-5.184zm0 5.184v5h16.768v-10h-16.768zm16.768 0h5v-5.888h-10v5.888zm0-5.888v5h6.527v-10h-6.527zm6.527 0h-5v6.464h10v-6.464zm0 6.464v-5h-5.888v10h5.888zm-5.888 0h-5v5.824h10v-5.824zm0 5.824v-5h-18.047v10h18.047zm13.629 0h-5v5h5zm0-23.744v-5h-5v5zm5.824 0v5h5v-5zm0-5.824v-5h-5v5zm18.047 0h5v-5h-5zm0 5.824h-5v5h5zm5.888 0h5v-5h-5zm0 6.336v5h5v-5zm-6.527 0h-5v5h5zm0-5.76h5v-5h-5zm-16.768 0v-5h-5v5zm0 23.168v5h5v-5zm-6.464 0h5V22.408h-10v23.744zm0-23.744v5h5.824v-10h-5.824zm5.824 0h5v-5.824h-10v5.824zm0-5.824v5h18.047v-10h-18.047zm18.047 0h-5v5.824h10v-5.824zm0 5.824v5h5.888v-10h-5.888zm5.888 0h-5v6.336h10v-6.336zm0 6.336v-5h-6.527v10h6.527zm-6.527 0h5v-5.76h-10v5.76zm0-5.76v-5h-16.768v10h16.768zm-16.768 0h-5v23.168h10V22.984zm0 23.168v-5h-6.464v10h6.464zm34.922 0h-5v5h5zm0-5.76h5v-5h-5zm-5.824 0h-5v5h5zm0-17.984v-5h-5v5zm5.824 0v5h5v-5zm0-5.824v-5h-5v5zm18.048 0h5v-5h-5zm0 5.824h-5v5h5zm5.888 0h5v-5h-5zm0 17.344h-5v5h5zm5.824 0h5v-5h-5zm0 6.4v5h5v-5zm-6.464 0h-5v5h5zm0-5.76h5v-5h-5zm-5.248 0v-5h-5v5zm0 5.76v5h5v-5zm-17.408-6.4h-5v5h5zm16.768 0v5h5v-5zm0-16.768h5v-5h-5zm-16.768 0v-5h-5v5zm-.64 23.168h5v-5.76h-10v5.76zm0-5.76v-5h-5.824v10h5.824zm-5.824 0h5V22.408h-10v17.984zm0-17.984v5h5.824v-10h-5.824zm5.824 0h5v-5.824h-10v5.824zm0-5.824v5h18.048v-10h-18.048zm18.048 0h-5v5.824h10v-5.824zm0 5.824v5h5.888v-10h-5.888zm5.888 0h-5v17.344h10V22.408zm0 17.344v5h5.824v-10h-5.824zm5.824 0h-5v6.4h10v-6.4zm0 6.4v-5h-6.464v10h6.464zm-6.464 0h5v-5.76h-10v5.76zm0-5.76v-5h-5.248v10h5.248zm-5.248 0h-5v5.76h10v-5.76zm0 5.76v-5h-18.048v10h18.048zm-17.408-6.4v5h16.768v-10h-16.768zm16.768 0h5V22.984h-10v16.768zm0-16.768v-5h-16.768v10h16.768zm-16.768 0h-5v16.768h10V22.984zm41.37 23.168h-5v5h5zm0-5.76h5v-5h-5zm-5.76 0h-5v5h5zm0-17.408h5v-5h-5zm-5.824 0h-5v5h5zm0-6.4v-5h-5v5zm5.824 0v5h5v-5zm0-11.584V0h-5v5zm6.4 0h5V0h-5zm0 11.584h-5v5h5zm17.536 0h5v-5h-5zm0 6.4v5h5v-5zm-17.536 0v-5h-5v5zm0 16.768h-5v5h5zm16.896 0v5h5v-5zm0-5.824v-5h-5v5zm6.464 0h5v-5h-5zm0 6.464v5h5v-5zm-5.824 0v-5h-5v5zm0 5.76v5h5v-5zm-18.176 0h5v-5.76h-10v5.76zm0-5.76v-5h-5.76v10h5.76zm-5.76 0h5V22.984h-10v17.408zm0-17.408v-5h-5.824v10h5.824zm-5.824 0h5v-6.4h-10v6.4zm0-6.4v5h5.824v-10h-5.824zm5.824 0h5V5h-10v11.584zm0-11.584v5h6.4V0h-6.4zm6.4 0h-5v11.584h10V5zm0 11.584v5h17.536v-10h-17.536zm17.536 0h-5v6.4h10v-6.4zm0 6.4v-5h-17.536v10h17.536zm-17.536 0h-5v16.768h10V22.984zm0 16.768v5h16.896v-10h-16.896zm16.896 0h5v-5.824h-10v5.824zm0-5.824v5h6.464v-10h-6.464zm6.464 0h-5v6.464h10v-6.464zm0 6.464v-5h-5.824v10h5.824zm-5.824 0h-5v5.76h10v-5.76zm0 5.76v-5h-18.176v10h18.176zm17.439 0h-5v5h5zm0-5.76h5v-5h-5zm-5.824 0h-5v5h5zm0-17.984v-5h-5v5zm5.824 0v5h5v-5zm0-5.824v-5h-5v5zm18.048 0h5v-5h-5zm0 5.824h-5v5h5zm5.888 0h5v-5h-5zm0 17.984v5h5v-5zm-5.888 0v-5h-5v5zm0 5.76v5h5v-5zm-17.408-6.4h-5v5h5zm16.768 0v5h5v-5zm0-16.768h5v-5h-5zm-16.768 0v-5h-5v5zm-.64 23.168h5v-5.76h-10v5.76zm0-5.76v-5h-5.824v10h5.824zm-5.824 0h5V22.408h-10v17.984zm0-17.984v5h5.824v-10h-5.824zm5.824 0h5v-5.824h-10v5.824zm0-5.824v5h18.048v-10h-18.048zm18.048 0h-5v5.824h10v-5.824zm0 5.824v5h5.888v-10h-5.888zm5.888 0h-5v17.984h10V22.408zm0 17.984v-5h-5.888v10h5.888zm-5.888 0h-5v5.76h10v-5.76zm0 5.76v-5h-18.048v10h18.048zm-17.408-6.4v5h16.768v-10h-16.768zm16.768 0h5V22.984h-10v16.768zm0-16.768v-5h-16.768v10h16.768zm-16.768 0h-5v16.768h10V22.984zm31.036 23.168h-5v5h5zm0-23.744v-5h-5v5zm5.824 0v5h5v-5zm0-5.824v-5h-5v5zm18.048 0h5v-5h-5zm0 5.824h-5v5h5zm5.888 0h5v-5h-5zm0 6.336v5h5v-5zm-6.528 0h-5v5h5zm0-5.76h5v-5h-5zm-16.768 0v-5h-5v5zm0 23.168v5h5v-5zm-6.464 0h5V22.408h-10v23.744zm0-23.744v5h5.824v-10h-5.824zm5.824 0h5v-5.824h-10v5.824zm0-5.824v5h18.048v-10h-18.048zm18.048 0h-5v5.824h10v-5.824zm0 5.824v5h5.888v-10h-5.888zm5.888 0h-5v6.336h10v-6.336zm0 6.336v-5h-6.528v10h6.528zm-6.528 0h5v-5.76h-10v5.76zm0-5.76v-5h-16.768v10h16.768zm-16.768 0h-5v23.168h10V22.984zm0 23.168v-5h-6.464v10h6.464z" mask="url(#c)"/>
  </g>
  <defs>
    <linearGradient id="b" x1="5.16" x2="833.16" y1="24.884" y2="24.884" gradientUnits="userSpaceOnUse">
      <stop stop-color="#ff4747"/>
      <stop offset=".188" stop-color="#ffaa3b"/>
      <stop offset=".389" stop-color="#e2ff3b"/>
      <stop offset=".587" stop-color="#4af03b"/>
      <stop offset=".803" stop-color="#5ff2ff"/>
      <stop offset="1" stop-color="#2f97ff"/>
    </linearGradient>
    <filter id="a" width="837.51" height="70.736" x="0" y="0" color-interpolation-filters="sRGB" filterUnits="userSpaceOnUse">
      <feFlood flood-opacity="0" result="BackgroundImageFix"/>
      <feColorMatrix in="SourceAlpha" result="hardAlpha" values="0 0 0 0 0 0 0 0 0 0 0 0 0 0 0 0 0 0 127 0"/>
      <feOffset dy="4"/>
      <feGaussianBlur stdDeviation="2"/>
      <feComposite in2="hardAlpha" operator="out"/>
      <feColorMatrix values="0 0 0 0 0 0 0 0 0 0 0 0 0 0 0 0 0 0 0.25 0"/>
      <feBlend in2="BackgroundImageFix" result="effect1_dropShadow_1_2"/>
      <feBlend in="SourceGraphic" in2="effect1_dropShadow_1_2" result="shape"/>
    </filter>
  </defs>
</svg>
