<svg xmlns="http://www.w3.org/2000/svg" width="846" height="79" fill="none" viewBox="0 0 846 79" xmlns:xlink="http://www.w3.org/1999/xlink">
  <g filter="url(#a)">
    <mask id="c" width="839" height="72" x="3.16" y="-.616" fill="#000" maskUnits="userSpaceOnUse">
      <path fill="#fff" d="M3.16-.616h839v72h-839z"/>
      <path d="M13 50.152V20.584h5.824v-5.76h5.76V9h6.528v5.824h5.76v5.76h5.888v29.568h-6.528V38.568H19.464v11.584zm6.464-18.048h16.768v-10.88h-5.76v-5.76h-5.248v5.76h-5.76zM50.5 50.152v-6.4h5.824V15.464H50.5V9h18.112v6.464h-5.888v28.288h5.888v6.4zm44.512 0v-5.76h-5.824v-6.464h6.463v5.824h16.769V32.744H95.011v-5.76h-5.823v-12.16h5.823V9h18.049v5.824h5.888v6.4h-6.528v-5.76H95.651v10.944h17.409v5.696h5.888v12.288h-5.888v5.76zm31.676 11.264V26.408h5.824v-5.824h18.048v5.824h5.888v17.984h-5.888v5.76h-17.408v11.264zm6.464-17.664h16.768V26.984h-16.768zm31.036 6.4V26.408h5.824v-5.824h18.048v5.824h5.888v6.336h-6.528v-5.76h-16.768v23.168zm37.5 0V20.584h6.464v29.568zm0-34.688V9h6.464v6.464zm23.834 34.688v-5.76h-5.76V26.984h-5.824v-6.4h5.824V9h6.4v11.584h17.536v6.4h-17.536v16.768h16.896v-5.824h6.464v6.464h-5.824v5.76zm35.615 0v-5.76h-5.824V26.408h5.824v-5.824h18.048v5.824h5.888v6.336h-6.528v-5.76h-16.768v5.12h11.648v6.464h-11.648v5.184h16.768v-5.888h6.528v6.464h-5.888v5.824zm44.488 0v-6.4h5.824V15.464h-5.824V9h18.112v6.464h-5.888v28.288h5.888v6.4zm23.938 0V20.584h18.112v5.824h5.12v-5.824h12.352v5.824h5.76v23.744h-6.4V26.984h-11.072v23.168h-6.4V26.984h-11.008v23.168zm54.261 0v-5.76H378V26.408h5.824v-5.824h18.048v5.824h5.888v17.344h5.824v6.4h-6.464v-5.76h-5.248v5.76zm.64-6.4h16.768V26.984h-16.768zm39.485 17.984v-5.76h-5.824v-6.4h6.464v5.76h16.832V44.392h-17.472v-5.824h-5.824v-12.16h5.824v-5.824h18.112v5.824h5.824v29.568h-5.824v5.76zm.64-23.808h16.832V26.984h-16.832zm34.923 12.224v-5.76h-5.824V26.408h5.824v-5.824h18.048v5.824h5.888v6.336h-6.528v-5.76h-16.768v5.12H471.8v6.464h-11.648v5.184h16.768v-5.888h6.528v6.464h-5.888v5.824zm50.312 0v-5.76H504V14.824h5.824V9h18.048v5.824h5.888v12.16h-6.528v-11.52h-16.768v28.288h16.768v-5.184h-5.76v-5.824h-5.888v-6.336h6.528v5.696h11.648v12.288h-5.888v5.76zm37.5 0v-5.76H541.5V26.408h5.824v-5.824h18.048v5.824h5.888v6.336h-6.528v-5.76h-16.768v5.12h11.648v6.464h-11.648v5.184h16.768v-5.888h6.528v6.464h-5.888v5.824zm31.676 0V20.584h23.872v5.824h5.888v23.744h-6.528V26.984h-16.768v23.168zm41.387 0v-5.76h-5.824V26.408h5.824v-5.824h18.048v5.824h5.888v6.336h-6.528v-5.76h-16.768v5.12h11.648v6.464h-11.648v5.184h16.768v-5.888h6.528v6.464h-5.888v5.824zm31.676 0V26.408h5.824v-5.824h18.048v5.824h5.888v6.336h-6.528v-5.76h-16.768v23.168zm41.386 0v-5.76h-5.824V26.408h5.824v-5.824h18.048v5.824h5.888v17.344h5.824v6.4h-6.464v-5.76h-5.248v5.76zm.64-6.4h16.768V26.984h-16.768zm41.37 6.4v-5.76h-5.76V26.984h-5.824v-6.4h5.824V9h6.4v11.584h17.536v6.4h-17.536v16.768h16.896v-5.824h6.464v6.464h-5.824v5.76zm35.615 0v-5.76h-5.824V26.408h5.824v-5.824h18.048v5.824h5.888v17.984h-5.888v5.76zm.64-6.4h16.768V26.984h-16.768zm31.036 6.4V26.408h5.824v-5.824h18.048v5.824h5.888v6.336h-6.528v-5.76h-16.768v23.168z"/>
    </mask>
    <path fill="url(#b)" d="M13 50.152V20.584h5.824v-5.76h5.76V9h6.528v5.824h5.76v5.76h5.888v29.568h-6.528V38.568H19.464v11.584zm6.464-18.048h16.768v-10.88h-5.76v-5.76h-5.248v5.76h-5.76zM50.5 50.152v-6.4h5.824V15.464H50.5V9h18.112v6.464h-5.888v28.288h5.888v6.4zm44.512 0v-5.76h-5.824v-6.464h6.463v5.824h16.769V32.744H95.011v-5.76h-5.823v-12.16h5.823V9h18.049v5.824h5.888v6.4h-6.528v-5.76H95.651v10.944h17.409v5.696h5.888v12.288h-5.888v5.76zm31.676 11.264V26.408h5.824v-5.824h18.048v5.824h5.888v17.984h-5.888v5.76h-17.408v11.264zm6.464-17.664h16.768V26.984h-16.768zm31.036 6.4V26.408h5.824v-5.824h18.048v5.824h5.888v6.336h-6.528v-5.76h-16.768v23.168zm37.5 0V20.584h6.464v29.568zm0-34.688V9h6.464v6.464zm23.834 34.688v-5.76h-5.76V26.984h-5.824v-6.4h5.824V9h6.4v11.584h17.536v6.4h-17.536v16.768h16.896v-5.824h6.464v6.464h-5.824v5.76zm35.615 0v-5.76h-5.824V26.408h5.824v-5.824h18.048v5.824h5.888v6.336h-6.528v-5.76h-16.768v5.12h11.648v6.464h-11.648v5.184h16.768v-5.888h6.528v6.464h-5.888v5.824zm44.488 0v-6.4h5.824V15.464h-5.824V9h18.112v6.464h-5.888v28.288h5.888v6.4zm23.938 0V20.584h18.112v5.824h5.12v-5.824h12.352v5.824h5.76v23.744h-6.4V26.984h-11.072v23.168h-6.4V26.984h-11.008v23.168zm54.261 0v-5.76H378V26.408h5.824v-5.824h18.048v5.824h5.888v17.344h5.824v6.4h-6.464v-5.76h-5.248v5.76zm.64-6.4h16.768V26.984h-16.768zm39.485 17.984v-5.76h-5.824v-6.4h6.464v5.76h16.832V44.392h-17.472v-5.824h-5.824v-12.16h5.824v-5.824h18.112v5.824h5.824v29.568h-5.824v5.76zm.64-23.808h16.832V26.984h-16.832zm34.923 12.224v-5.76h-5.824V26.408h5.824v-5.824h18.048v5.824h5.888v6.336h-6.528v-5.76h-16.768v5.12H471.8v6.464h-11.648v5.184h16.768v-5.888h6.528v6.464h-5.888v5.824zm50.312 0v-5.76H504V14.824h5.824V9h18.048v5.824h5.888v12.16h-6.528v-11.52h-16.768v28.288h16.768v-5.184h-5.76v-5.824h-5.888v-6.336h6.528v5.696h11.648v12.288h-5.888v5.76zm37.5 0v-5.76H541.5V26.408h5.824v-5.824h18.048v5.824h5.888v6.336h-6.528v-5.76h-16.768v5.12h11.648v6.464h-11.648v5.184h16.768v-5.888h6.528v6.464h-5.888v5.824zm31.676 0V20.584h23.872v5.824h5.888v23.744h-6.528V26.984h-16.768v23.168zm41.387 0v-5.76h-5.824V26.408h5.824v-5.824h18.048v5.824h5.888v6.336h-6.528v-5.76h-16.768v5.12h11.648v6.464h-11.648v5.184h16.768v-5.888h6.528v6.464h-5.888v5.824zm31.676 0V26.408h5.824v-5.824h18.048v5.824h5.888v6.336h-6.528v-5.76h-16.768v23.168zm41.386 0v-5.76h-5.824V26.408h5.824v-5.824h18.048v5.824h5.888v17.344h5.824v6.4h-6.464v-5.76h-5.248v5.76zm.64-6.4h16.768V26.984h-16.768zm41.37 6.4v-5.76h-5.76V26.984h-5.824v-6.4h5.824V9h6.4v11.584h17.536v6.4h-17.536v16.768h16.896v-5.824h6.464v6.464h-5.824v5.76zm35.615 0v-5.76h-5.824V26.408h5.824v-5.824h18.048v5.824h5.888v17.984h-5.888v5.76zm.64-6.4h16.768V26.984h-16.768zm31.036 6.4V26.408h5.824v-5.824h18.048v5.824h5.888v6.336h-6.528v-5.76h-16.768v23.168z"/>
    <path fill="#000" d="M13 50.152H4v9h9zm0-29.568v-9H4v9zm5.824 0v9h9v-9zm0-5.76v-9h-9v9zm5.76 0v9h9v-9zm0-5.824V0h-9v9zm6.528 0h9V0h-9zm0 5.824h-9v9h9zm5.76 0h9v-9h-9zm0 5.76h-9v9h9zm5.888 0h9v-9h-9zm0 29.568v9h9v-9zm-6.528 0h-9v9h9zm0-11.584h9v-9h-9zm-16.768 0v-9h-9v9zm0 11.584v9h9v-9zm0-18.048h-9v9h9zm16.768 0v9h9v-9zm0-10.88h9v-9h-9zm-5.76 0h-9v9h9zm0-5.76h9v-9h-9zm-5.248 0v-9h-9v9zm0 5.76v9h9v-9zm-5.76 0v-9h-9v9zM13 50.152h9V20.584H4v29.568zm0-29.568v9h5.824v-18H13zm5.824 0h9v-5.76h-18v5.76zm0-5.76v9h5.76v-18h-5.76zm5.76 0h9V9h-18v5.824zm0-5.824v9h6.528V0h-6.528zm6.528 0h-9v5.824h18V9zm0 5.824v9h5.76v-18h-5.76zm5.76 0h-9v5.76h18v-5.76zm0 5.76v9h5.888v-18h-5.888zm5.888 0h-9v29.568h18V20.584zm0 29.568v-9h-6.528v18h6.528zm-6.528 0h9V38.568h-18v11.584zm0-11.584v-9H19.464v18h16.768zm-16.768 0h-9v11.584h18V38.568zm0 11.584v-9H13v18h6.464zm0-18.048v9h16.768v-18H19.464zm16.768 0h9v-10.88h-18v10.88zm0-10.88v-9h-5.76v18h5.76zm-5.76 0h9v-5.76h-18v5.76zm0-5.76v-9h-5.248v18h5.248zm-5.248 0h-9v5.76h18v-5.76zm0 5.76v-9h-5.76v18h5.76zm-5.76 0h-9v10.88h18v-10.88zM50.5 50.152h-9v9h9zm0-6.4v-9h-9v9zm5.824 0v9h9v-9zm0-28.288h9v-9h-9zm-5.824 0h-9v9h9zM50.5 9V0h-9v9zm18.112 0h9V0h-9zm0 6.464v9h9v-9zm-5.888 0v-9h-9v9zm0 28.288h-9v9h9zm5.888 0h9v-9h-9zm0 6.4v9h9v-9zm-18.112 0h9v-6.4h-18v6.4zm0-6.4v9h5.824v-18H50.5zm5.824 0h9V15.464h-18v28.288zm0-28.288v-9H50.5v18h5.824zm-5.824 0h9V9h-18v6.464zM50.5 9v9h18.112V0H50.5zm18.112 0h-9v6.464h18V9zm0 6.464v-9h-5.888v18h5.888zm-5.888 0h-9v28.288h18V15.464zm0 28.288v9h5.888v-18h-5.888zm5.888 0h-9v6.4h18v-6.4zm0 6.4v-9H50.5v18h18.112zm26.4 0h-9v9h9zm0-5.76h9v-9h-9zm-5.824 0h-9v9h9zm0-6.464v-9h-9v9zm6.463 0h9.001v-9h-9zm0 5.824h-9v9h9zm16.769 0v9h9v-9zm0-11.008h9v-9h-9zm-17.409 0h-9v9h9zm0-5.76h9.001v-9h-9zm-5.823 0h-9v9h9zm0-12.16v-9h-9v9zm5.823 0v9h9.001v-9zm0-5.824V0h-9v9zm18.049 0h9V0h-9zm0 5.824h-9v9h9zm5.888 0h9v-9h-9zm0 6.4v9h9v-9zm-6.528 0h-9v9h9zm0-5.76h9v-9h-9zm-16.769 0v-9h-9v9zm0 10.944h-9v9h9zm17.409 0h9v-9h-9zm0 5.696h-9v9h9zm5.888 0h9v-9h-9zm0 12.288v9h9v-9zm-5.888 0v-9h-9v9zm0 5.76v9h9v-9zm-18.049 0h9.001v-5.76h-18v5.76zm0-5.76v-9h-5.823v18h5.823zm-5.823 0h9v-6.464h-18v6.464zm0-6.464v9h6.463v-18h-6.463zm6.463 0h-9v5.824h18.001v-5.824zm0 5.824v9h16.769v-18H95.651zm16.769 0h9V32.744h-18v11.008zm0-11.008v-9H95.011v18h17.409zm-17.409 0h9.001v-5.76h-18v5.76zm0-5.76v-9h-5.823v18h5.823zm-5.823 0h9v-12.16h-18v12.16zm0-12.16v9h5.823v-18h-5.823zm5.823 0h9.001V9h-18v5.824zm0-5.824v9h18.049V0H95.011zm18.049 0h-9v5.824h18V9zm0 5.824v9h5.888v-18h-5.888zm5.888 0h-9v6.4h18v-6.4zm0 6.4v-9h-6.528v18h6.528zm-6.528 0h9v-5.76h-18v5.76zm0-5.76v-9H95.651v18h16.769zm-16.769 0h-9v10.944h18.001V15.464zm0 10.944v9h17.409v-18H95.651zm17.409 0h-9v5.696h18v-5.696zm0 5.696v9h5.888v-18h-5.888zm5.888 0h-9v12.288h18V32.104zm0 12.288v-9h-5.888v18h5.888zm-5.888 0h-9v5.76h18v-5.76zm0 5.76v-9H95.011v18h18.049zm13.628 11.264h-9v9h9zm0-35.008v-9h-9v9zm5.824 0v9h9v-9zm0-5.824v-9h-9v9zm18.048 0h9v-9h-9zm0 5.824h-9v9h9zm5.888 0h9v-9h-9zm0 17.984v9h9v-9zm-5.888 0v-9h-9v9zm0 5.76v9h9v-9zm-17.408 0v-9h-9v9zm0 11.264v9h9v-9zm0-17.664h-9v9h9zm16.768 0v9h8.999v-9zm0-16.768h8.999v-9h-8.999zm-16.768 0v-9h-9v9zm-6.464 34.432h9V26.408h-18v35.008zm0-35.008v9h5.824v-18h-5.824zm5.824 0h9v-5.824h-18v5.824zm0-5.824v9h18.048v-18h-18.048zm18.048 0h-9v5.824h18v-5.824zm0 5.824v9h5.888v-18h-5.888zm5.888 0h-9v17.984h18V26.408zm0 17.984v-9h-5.888v18h5.888zm-5.888 0h-9v5.76h18v-5.76zm0 5.76v-9h-17.408v18h17.408zm-17.408 0h-9v11.264h18V50.152zm0 11.264v-9h-6.464v18h6.464zm0-17.664v9h16.768v-18h-16.768zm16.768 0h8.999V26.984H140.92v16.768zm0-16.768v-9h-16.768v18h16.768zm-16.768 0h-9v16.768h18V26.984zm31.036 23.168h-9v9h9zm0-23.744v-9h-9v9zm5.824 0v9h9v-9zm0-5.824v-9h-9v9zm18.048 0h9v-9h-9zm0 5.824h-9v9h9zm5.888 0h9v-9h-9zm0 6.336v9h9v-9zm-6.528 0h-9v9h9zm0-5.76h8.999v-9h-8.999zm-16.768 0v-9h-9v9zm0 23.168v9h9v-9zm-6.464 0h9V26.408h-18v23.744zm0-23.744v9h5.824v-18h-5.824zm5.824 0h9v-5.824h-18v5.824zm0-5.824v9h18.048v-18h-18.048zm18.048 0h-9v5.824h18v-5.824zm0 5.824v9h5.888v-18h-5.888zm5.888 0h-9v6.336h18v-6.336zm0 6.336v-9h-6.528v18h6.528zm-6.528 0h8.999v-5.76H178.42v5.76zm0-5.76v-9h-16.768v18h16.768zm-16.768 0h-9v23.168h18V26.984zm0 23.168v-9h-6.464v18h6.464zm31.036 0h-9v9h9zm0-29.568v-9h-9v9zm6.464 0h9v-9h-9zm0 29.568v9h9v-9zm-6.464-34.688h-9v9h9zm0-6.464V0h-9v9zm6.464 0h9V0h-9zm0 6.464v9h9v-9zm-6.464 34.688h9V20.584h-18v29.568zm0-29.568v9h6.464v-18h-6.464zm6.464 0h-9v29.568h18V20.584zm0 29.568v-9h-6.464v18h6.464zm-6.464-34.688h9V9h-18v6.464zm0-6.464v9h6.464V0h-6.464zm6.464 0h-9v6.464h18V9zm0 6.464v-9h-6.464v18h6.464zm17.369 34.688h-9v9h9zm0-5.76h9v-9h-9zm-5.759 0h-9v9h9zm0-17.408h9v-9h-9zm-5.824 0h-9v9h9zm0-6.4v-9h-9v9zm5.824 0v9h9v-9zm0-11.584V0h-9v9zm6.399 0h9V0h-9zm0 11.584h-9v9h9zm17.537 0h9v-9h-9zm0 6.4v9h9v-9zm-17.537 0v-9h-9v9zm0 16.768h-9v9h9zm16.897 0v9h9v-9zm0-5.824v-9h-9v9zm6.464 0h9v-9h-9zm0 6.464v9h9v-9zm-5.824 0v-9h-9v9zm0 5.76v9h9v-9zm-18.177 0h9v-5.76h-18v5.76zm0-5.76v-9h-5.759v18h5.759zm-5.759 0h9V26.984h-18v17.408zm0-17.408v-9h-5.824v18h5.824zm-5.824 0h9v-6.4h-18v6.4zm0-6.4v9h5.824v-18h-5.824zm5.824 0h9V9h-18v11.584zm0-11.584v9h6.399V0h-6.399zm6.399 0h-9v11.584h18V9zm0 11.584v9h17.537v-18h-17.537zm17.537 0h-9v6.4h18v-6.4zm0 6.4v-9h-17.537v18h17.537zm-17.537 0h-9v16.768h18V26.984zm0 16.768v9h16.897v-18h-16.897zm16.897 0h9v-5.824h-18v5.824zm0-5.824v9h6.464v-18h-6.464zm6.464 0h-9v6.464h18v-6.464zm0 6.464v-9h-5.824v18h5.824zm-5.824 0h-9v5.76h18v-5.76zm0 5.76v-9h-18.177v18h18.177zm17.439 0h-9v9h9zm0-5.76h9v-9h-9zm-5.825 0h-9v9h9zm0-17.984v-9h-9v9zm5.825 0v9h9v-9zm0-5.824v-9h-9v9zm18.048 0h9v-9h-9zm0 5.824h-9v9h9zm5.888 0h9v-9h-9zm0 6.336v9h9v-9zm-6.529 0h-9v9h9zm0-5.76h9v-9h-9zm-16.767 0v-9h-9v9zm0 5.12h-9v9h9zm11.647 0h9v-9h-9zm0 6.464v9h9v-9zm-11.647 0v-9h-9v9zm0 5.184h-9v9h9zm16.767 0v9h9v-9zm0-5.888v-9h-9v9zm6.529 0h9v-9h-9zm0 6.464v9h9v-9zm-5.888 0v-9h-9v9zm0 5.824v9h9v-9zm-18.048 0h9v-5.76h-18v5.76zm0-5.76v-9h-5.825v18h5.825zm-5.825 0h9V26.408h-18v17.984zm0-17.984v9h5.825v-18h-5.825zm5.825 0h9v-5.824h-18v5.824zm0-5.824v9h18.048v-18h-18.048zm18.048 0h-9v5.824h18v-5.824zm0 5.824v9h5.888v-18h-5.888zm5.888 0h-9v6.336h18v-6.336zm0 6.336v-9h-6.529v18h6.529zm-6.529 0h9v-5.76h-18v5.76zm0-5.76v-9h-16.767v18h16.767zm-16.767 0h-9v5.12h18v-5.12zm0 5.12v9h11.647v-18h-11.647zm11.647 0h-9v6.464h18v-6.464zm0 6.464v-9h-11.647v18h11.647zm-11.647 0h-9v5.184h18v-5.184zm0 5.184v9h16.767v-18h-16.767zm16.767 0h9v-5.888h-18v5.888zm0-5.888v9h6.529v-18h-6.529zm6.529 0h-9v6.464h18v-6.464zm0 6.464v-9h-5.888v18h5.888zm-5.888 0h-9v5.824h18v-5.824zm0 5.824v-9h-18.048v18h18.048zm26.44 0h-9v9h9zm0-6.4v-9h-9v9zm5.824 0v9h9v-9zm0-28.288h9v-9h-9zm-5.824 0h-9v9h9zm0-6.464V0h-9v9zm18.112 0h9V0h-9zm0 6.464v9h9v-9zm-5.888 0v-9h-9v9zm0 28.288h-9v9h9zm5.888 0h9v-9h-9zm0 6.4v9h9v-9zm-18.112 0h9v-6.4h-18v6.4zm0-6.4v9h5.824v-18h-5.824zm5.824 0h9V15.464h-18v28.288zm0-28.288v-9h-5.824v18h5.824zm-5.824 0h9V9h-18v6.464zm0-6.464v9h18.112V0h-18.112zm18.112 0h-9v6.464h18V9zm0 6.464v-9h-5.888v18h5.888zm-5.888 0h-9v28.288h18V15.464zm0 28.288v9h5.888v-18h-5.888zm5.888 0h-9v6.4h18v-6.4zm0 6.4v-9h-18.112v18h18.112zm5.825 0h-9v9h9zm0-29.568v-9h-9v9zm18.112 0h9v-9h-9zm0 5.824h-9v9h9zm5.12 0v9h9v-9zm0-5.824v-9h-9v9zm12.353 0h9v-9h-9zm0 5.824h-9v9h9zm5.759 0h9v-9h-9zm0 23.744v9h9v-9zm-6.399 0h-9v9h9zm0-23.168h9v-9h-9zm-11.072 0v-9h-9v9zm0 23.168v9h9v-9zm-6.4 0h-9v9h9zm0-23.168h9v-9h-9zm-11.008 0v-9h-9v9zm0 23.168v9h9v-9zm-6.465 0h9V20.584h-18v29.568zm0-29.568v9h18.112v-18h-18.112zm18.112 0h-9v5.824h18v-5.824zm0 5.824v9h5.12v-18h-5.12zm5.12 0h9v-5.824h-18v5.824zm0-5.824v9h12.353v-18h-12.353zm12.353 0h-9v5.824h18v-5.824zm0 5.824v9h5.759v-18h-5.759zm5.759 0h-9v23.744h18V26.408zm0 23.744v-9h-6.399v18h6.399zm-6.399 0h9V26.984h-18v23.168zm0-23.168v-9h-11.072v18h11.072zm-11.072 0h-9v23.168h18V26.984zm0 23.168v-9h-6.4v18h6.4zm-6.4 0h9V26.984h-18v23.168zm0-23.168v-9h-11.008v18h11.008zm-11.008 0h-9v23.168h18V26.984zm0 23.168v-9h-6.465v18h6.465zm47.797 0h-9v9h9zm0-5.76h9v-9h-9zm-5.824 0h-9v9h9zm0-17.984v-9h-9v9zm5.824 0v9h9v-9zm0-5.824v-9h-9v9zm18.048 0h9v-9h-9zm0 5.824h-9v9h9zm5.888 0h9v-9h-9zm0 17.344h-9v9h9zm5.824 0h9v-9h-9zm0 6.4v9h9v-9zm-6.464 0h-9v9h9zm0-5.76h9v-9h-9zm-5.248 0v-9h-9v9zm0 5.76v9h9v-9zm-17.408-6.4h-9v9h9zm16.768 0v9h9v-9zm0-16.768h9v-9h-9zm-16.768 0v-9h-9v9zm-.64 23.168h9v-5.76h-18v5.76zm0-5.76v-9H378v18h5.824zm-5.824 0h9V26.408h-18v17.984zm0-17.984v9h5.824v-18H378zm5.824 0h9v-5.824h-18v5.824zm0-5.824v9h18.048v-18h-18.048zm18.048 0h-9v5.824h18v-5.824zm0 5.824v9h5.888v-18h-5.888zm5.888 0h-9v17.344h18V26.408zm0 17.344v9h5.824v-18h-5.824zm5.824 0h-9v6.4h18v-6.4zm0 6.4v-9h-6.464v18h6.464zm-6.464 0h9v-5.76h-18v5.76zm0-5.76v-9h-5.248v18h5.248zm-5.248 0h-9v5.76h18v-5.76zm0 5.76v-9h-18.048v18h18.048zm-17.408-6.4v9h16.768v-18h-16.768zm16.768 0h9V26.984h-18v16.768zm0-16.768v-9h-16.768v18h16.768zm-16.768 0h-9v16.768h18V26.984zm39.485 34.752h-9v9h9zm0-5.76h9v-9h-9zm-5.824 0h-9v9h9zm0-6.4v-9h-9v9zm6.464 0h9v-9h-9zm0 5.76h-9v9h9zm16.832 0v9h9v-9zm0-10.944h9v-9h-9zm-17.472 0h-9v9h9zm0-5.824h9v-9h-9zm-5.824 0h-9v9h9zm0-12.16v-9h-9v9zm5.824 0v9h9v-9zm0-5.824v-9h-9v9zm18.112 0h9v-9h-9zm0 5.824h-9v9h9zm5.824 0h9v-9h-9zm0 29.568v9h9v-9zm-5.824 0v-9h-9v9zm0 5.76v9h9v-9zm-17.472-23.808h-9v9h9zm16.832 0v9h9v-9zm0-10.944h9v-9h-9zm-16.832 0v-9h-9v9zm-.64 34.752h9v-5.76h-18v5.76zm0-5.76v-9h-5.824v18h5.824zm-5.824 0h9v-6.4h-18v6.4zm0-6.4v9h6.464v-18h-6.464zm6.464 0h-9v5.76h18v-5.76zm0 5.76v9h16.832v-18h-16.832zm16.832 0h9V44.392h-18v10.944zm0-10.944v-9h-17.472v18h17.472zm-17.472 0h9v-5.824h-18v5.824zm0-5.824v-9h-5.824v18h5.824zm-5.824 0h9v-12.16h-18v12.16zm0-12.16v9h5.824v-18h-5.824zm5.824 0h9v-5.824h-18v5.824zm0-5.824v9h18.112v-18h-18.112zm18.112 0h-9v5.824h18v-5.824zm0 5.824v9h5.824v-18h-5.824zm5.824 0h-9v29.568h18V26.408zm0 29.568v-9h-5.824v18h5.824zm-5.824 0h-9v5.76h18v-5.76zm0 5.76v-9h-18.112v18h18.112zm-17.472-23.808v9h16.832v-18h-16.832zm16.832 0h9V26.984h-18v10.944zm0-10.944v-9h-16.832v18h16.832zm-16.832 0h-9v10.944h18V26.984zm34.923 23.168h-9v9h9zm0-5.76h9v-9h-9zm-5.824 0h-9v9h9zm0-17.984v-9h-9v9zm5.824 0v9h9v-9zm0-5.824v-9h-9v9zm18.048 0h9v-9h-9zm0 5.824h-9v9h9zm5.888 0h9v-9h-9zm0 6.336v9h9v-9zm-6.529 0h-9v9h9zm0-5.76h9v-9h-9zm-16.767 0v-9h-9v9zm0 5.12h-9v9h9zm11.647 0h9v-9h-9zm0 6.464v9h9v-9zm-11.647 0v-9h-9v9zm0 5.184h-9v9h9zm16.767 0v9h9v-9zm0-5.888v-9h-9v9zm6.529 0h9v-9h-9zm0 6.464v9h9v-9zm-5.888 0v-9h-9v9zm0 5.824v9h9v-9zm-18.048 0h9v-5.76h-18v5.76zm0-5.76v-9h-5.824v18h5.824zm-5.824 0h9V26.408h-18v17.984zm0-17.984v9h5.824v-18h-5.824zm5.824 0h9v-5.824h-18v5.824zm0-5.824v9h18.048v-18h-18.048zm18.048 0h-9v5.824h18v-5.824zm0 5.824v9h5.888v-18h-5.888zm5.888 0h-9v6.336h18v-6.336zm0 6.336v-9h-6.529v18h6.529zm-6.529 0h9v-5.76h-18v5.76zm0-5.76v-9h-16.767v18h16.767zm-16.767 0h-9v5.12h18v-5.12zm0 5.12v9h11.647v-18h-11.647zm11.647 0h-9v6.464h18v-6.464zm0 6.464v-9h-11.647v18h11.647zm-11.647 0h-9v5.184h18v-5.184zm0 5.184v9h16.767v-18h-16.767zm16.767 0h9v-5.888h-18v5.888zm0-5.888v9h6.529v-18h-6.529zm6.529 0h-9v6.464h18v-6.464zm0 6.464v-9h-5.888v18h5.888zm-5.888 0h-9v5.824h18v-5.824zm0 5.824v-9h-18.048v18h18.048zm32.264 0h-9v9h9zm0-5.76h9v-9h-9zm-5.824 0h-9v9h9zm0-29.568v-9h-9v9zm5.824 0v9h9v-9zm0-5.824V0h-9v9zm18.048 0h9V0h-9zm0 5.824h-9v9h9zm5.888 0h9v-9h-9zm0 12.16v9h9v-9zm-6.528 0h-9v9h9zm0-11.52h9v-9h-9zm-16.768 0v-9h-9v9zm0 28.288h-9v9h9zm16.768 0v9h9v-9zm0-5.184h9v-9h-9zm-5.76 0h-9v9h9zm0-5.824h9v-9h-9zm-5.888 0h-9v9h9zm0-6.336v-9h-9v9zm6.528 0h9v-9h-9zm0 5.696h-9v9h9zm11.648 0h9v-9h-9zm0 12.288v9h9v-9zm-5.888 0v-9h-9v9zm0 5.76v9h9v-9zm-18.048 0h9v-5.76h-18v5.76zm0-5.76v-9H504v18h5.824zm-5.824 0h9V14.824h-18v29.568zm0-29.568v9h5.824v-18H504zm5.824 0h9V9h-18v5.824zm0-5.824v9h18.048V0h-18.048zm18.048 0h-9v5.824h18V9zm0 5.824v9h5.888v-18h-5.888zm5.888 0h-9v12.16h18v-12.16zm0 12.16v-9h-6.528v18h6.528zm-6.528 0h9v-11.52h-18v11.52zm0-11.52v-9h-16.768v18h16.768zm-16.768 0h-9v28.288h18V15.464zm0 28.288v9h16.768v-18h-16.768zm16.768 0h9v-5.184h-18v5.184zm0-5.184v-9h-5.76v18h5.76zm-5.76 0h9v-5.824h-18v5.824zm0-5.824v-9h-5.888v18h5.888zm-5.888 0h9v-6.336h-18v6.336zm0-6.336v9h6.528v-18h-6.528zm6.528 0h-9v5.696h18v-5.696zm0 5.696v9h11.648v-18h-11.648zm11.648 0h-9v12.288h18V32.104zm0 12.288v-9h-5.888v18h5.888zm-5.888 0h-9v5.76h18v-5.76zm0 5.76v-9h-18.048v18h18.048zm19.452 0h-9v9h9zm0-5.76h9v-9h-9zm-5.824 0h-9v9h9zm0-17.984v-9h-9v9zm5.824 0v9h9v-9zm0-5.824v-9h-9v9zm18.048 0h9v-9h-9zm0 5.824h-9v9h9zm5.888 0h9v-9h-9zm0 6.336v9h9v-9zm-6.528 0h-9v9h9zm0-5.76h9v-9h-9zm-16.768 0v-9h-9v9zm0 5.12h-9v9h9zm11.648 0h9v-9h-9zm0 6.464v9h9v-9zm-11.648 0v-9h-9v9zm0 5.184h-9v9h9zm16.768 0v9h9v-9zm0-5.888v-9h-9v9zm6.528 0h9v-9h-9zm0 6.464v9h9v-9zm-5.888 0v-9h-9v9zm0 5.824v9h9v-9zm-18.048 0h9v-5.76h-18v5.76zm0-5.76v-9H541.5v18h5.824zm-5.824 0h9V26.408h-18v17.984zm0-17.984v9h5.824v-18H541.5zm5.824 0h9v-5.824h-18v5.824zm0-5.824v9h18.048v-18h-18.048zm18.048 0h-9v5.824h18v-5.824zm0 5.824v9h5.888v-18h-5.888zm5.888 0h-9v6.336h18v-6.336zm0 6.336v-9h-6.528v18h6.528zm-6.528 0h9v-5.76h-18v5.76zm0-5.76v-9h-16.768v18h16.768zm-16.768 0h-9v5.12h18v-5.12zm0 5.12v9h11.648v-18h-11.648zm11.648 0h-9v6.464h18v-6.464zm0 6.464v-9h-11.648v18h11.648zm-11.648 0h-9v5.184h18v-5.184zm0 5.184v9h16.768v-18h-16.768zm16.768 0h9v-5.888h-18v5.888zm0-5.888v9h6.528v-18h-6.528zm6.528 0h-9v6.464h18v-6.464zm0 6.464v-9h-5.888v18h5.888zm-5.888 0h-9v5.824h18v-5.824zm0 5.824v-9h-18.048v18h18.048zm13.628 0h-9v9h9zm0-29.568v-9h-9v9zm23.872 0h9v-9h-9zm0 5.824h-9v9h9zm5.888 0h9v-9h-9zm0 23.744v9h9v-9zm-6.528 0h-9v9h9zm0-23.168h9v-9h-9zm-16.768 0v-9h-9v9zm0 23.168v9h9v-9zm-6.464 0h9V20.584h-18v29.568zm0-29.568v9h23.872v-18H579zm23.872 0h-9v5.824h18v-5.824zm0 5.824v9h5.888v-18h-5.888zm5.888 0h-9v23.744h18V26.408zm0 23.744v-9h-6.528v18h6.528zm-6.528 0h9V26.984h-18v23.168zm0-23.168v-9h-16.768v18h16.768zm-16.768 0h-9v23.168h18V26.984zm0 23.168v-9H579v18h6.464zm34.923 0h-9v9h9zm0-5.76h9v-9h-9zm-5.824 0h-9v9h9zm0-17.984v-9h-9v9zm5.824 0v9h9v-9zm0-5.824v-9h-9v9zm18.047 0h9v-9h-9zm0 5.824h-9v9h9zm5.888 0h9v-9h-9zm0 6.336v9h9v-9zm-6.527 0h-9v9h9zm0-5.76h9v-9h-9zm-16.768 0v-9h-9v9zm0 5.12h-9v9h9zm11.648 0h9v-9h-9zm0 6.464v9h9v-9zm-11.648 0v-9h-9v9zm0 5.184h-9v9h9zm16.768 0v9h9v-9zm0-5.888v-9h-9v9zm6.527 0h9v-9h-9zm0 6.464v9h9v-9zm-5.888 0v-9h-9v9zm0 5.824v9h9v-9zm-18.047 0h9v-5.76h-18v5.76zm0-5.76v-9h-5.824v18h5.824zm-5.824 0h9V26.408h-18v17.984zm0-17.984v9h5.824v-18h-5.824zm5.824 0h9v-5.824h-18v5.824zm0-5.824v9h18.047v-18h-18.047zm18.047 0h-9v5.824h18v-5.824zm0 5.824v9h5.888v-18h-5.888zm5.888 0h-9v6.336h18v-6.336zm0 6.336v-9h-6.527v18h6.527zm-6.527 0h9v-5.76h-18v5.76zm0-5.76v-9h-16.768v18h16.768zm-16.768 0h-9v5.12h18v-5.12zm0 5.12v9h11.648v-18h-11.648zm11.648 0h-9v6.464h18v-6.464zm0 6.464v-9h-11.648v18h11.648zm-11.648 0h-9v5.184h18v-5.184zm0 5.184v9h16.768v-18h-16.768zm16.768 0h9v-5.888h-18v5.888zm0-5.888v9h6.527v-18h-6.527zm6.527 0h-9v6.464h18v-6.464zm0 6.464v-9h-5.888v18h5.888zm-5.888 0h-9v5.824h18v-5.824zm0 5.824v-9h-18.047v18h18.047zm13.629 0h-9v9h9zm0-23.744v-9h-9v9zm5.824 0v9h9v-9zm0-5.824v-9h-9v9zm18.047 0h9v-9h-9zm0 5.824h-9v9h9zm5.888 0h9v-9h-9zm0 6.336v9h9v-9zm-6.527 0h-9v9h9zm0-5.76h9v-9h-9zm-16.768 0v-9h-9v9zm0 23.168v9h9v-9zm-6.464 0h9V26.408h-18v23.744zm0-23.744v9h5.824v-18h-5.824zm5.824 0h9v-5.824h-18v5.824zm0-5.824v9h18.047v-18h-18.047zm18.047 0h-9v5.824h18v-5.824zm0 5.824v9h5.888v-18h-5.888zm5.888 0h-9v6.336h18v-6.336zm0 6.336v-9h-6.527v18h6.527zm-6.527 0h9v-5.76h-18v5.76zm0-5.76v-9h-16.768v18h16.768zm-16.768 0h-9v23.168h18V26.984zm0 23.168v-9h-6.464v18h6.464zm34.922 0h-9v9h9zm0-5.76h9v-9h-9zm-5.824 0h-9v9h9zm0-17.984v-9h-9v9zm5.824 0v9h9v-9zm0-5.824v-9h-9v9zm18.048 0h9v-9h-9zm0 5.824h-9v9h9zm5.888 0h9v-9h-9zm0 17.344h-9v9h9zm5.824 0h9v-9h-9zm0 6.4v9h9v-9zm-6.464 0h-9v9h9zm0-5.76h9v-9h-9zm-5.248 0v-9h-9v9zm0 5.76v9h9v-9zm-17.408-6.4h-9v9h9zm16.768 0v9h9v-9zm0-16.768h9v-9h-9zm-16.768 0v-9h-9v9zm-.64 23.168h9v-5.76h-18v5.76zm0-5.76v-9h-5.824v18h5.824zm-5.824 0h9V26.408h-18v17.984zm0-17.984v9h5.824v-18h-5.824zm5.824 0h9v-5.824h-18v5.824zm0-5.824v9h18.048v-18h-18.048zm18.048 0h-9v5.824h18v-5.824zm0 5.824v9h5.888v-18h-5.888zm5.888 0h-9v17.344h18V26.408zm0 17.344v9h5.824v-18h-5.824zm5.824 0h-9v6.4h18v-6.4zm0 6.4v-9h-6.464v18h6.464zm-6.464 0h9v-5.76h-18v5.76zm0-5.76v-9h-5.248v18h5.248zm-5.248 0h-9v5.76h18v-5.76zm0 5.76v-9h-18.048v18h18.048zm-17.408-6.4v9h16.768v-18h-16.768zm16.768 0h9V26.984h-18v16.768zm0-16.768v-9h-16.768v18h16.768zm-16.768 0h-9v16.768h18V26.984zm41.37 23.168h-9v9h9zm0-5.76h9v-9h-9zm-5.76 0h-9v9h9zm0-17.408h9v-9h-9zm-5.824 0h-9v9h9zm0-6.4v-9h-9v9zm5.824 0v9h9v-9zm0-11.584V0h-9v9zm6.4 0h9V0h-9zm0 11.584h-9v9h9zm17.536 0h9v-9h-9zm0 6.4v9h9v-9zm-17.536 0v-9h-9v9zm0 16.768h-9v9h9zm16.896 0v9h9v-9zm0-5.824v-9h-9v9zm6.464 0h9v-9h-9zm0 6.464v9h9v-9zm-5.824 0v-9h-9v9zm0 5.76v9h9v-9zm-18.176 0h9v-5.76h-18v5.76zm0-5.76v-9h-5.76v18h5.76zm-5.76 0h9V26.984h-18v17.408zm0-17.408v-9h-5.824v18h5.824zm-5.824 0h9v-6.4h-18v6.4zm0-6.4v9h5.824v-18h-5.824zm5.824 0h9V9h-18v11.584zm0-11.584v9h6.4V0h-6.4zm6.4 0h-9v11.584h18V9zm0 11.584v9h17.536v-18h-17.536zm17.536 0h-9v6.4h18v-6.4zm0 6.4v-9h-17.536v18h17.536zm-17.536 0h-9v16.768h18V26.984zm0 16.768v9h16.896v-18h-16.896zm16.896 0h9v-5.824h-18v5.824zm0-5.824v9h6.464v-18h-6.464zm6.464 0h-9v6.464h18v-6.464zm0 6.464v-9h-5.824v18h5.824zm-5.824 0h-9v5.76h18v-5.76zm0 5.76v-9h-18.176v18h18.176zm17.439 0h-9v9h9zm0-5.76h9v-9h-9zm-5.824 0h-9v9h9zm0-17.984v-9h-9v9zm5.824 0v9h9v-9zm0-5.824v-9h-9v9zm18.048 0h9v-9h-9zm0 5.824h-9v9h9zm5.888 0h9v-9h-9zm0 17.984v9h9v-9zm-5.888 0v-9h-9v9zm0 5.76v9h9v-9zm-17.408-6.4h-9v9h9zm16.768 0v9h9v-9zm0-16.768h9v-9h-9zm-16.768 0v-9h-9v9zm-.64 23.168h9v-5.76h-18v5.76zm0-5.76v-9h-5.824v18h5.824zm-5.824 0h9V26.408h-18v17.984zm0-17.984v9h5.824v-18h-5.824zm5.824 0h9v-5.824h-18v5.824zm0-5.824v9h18.048v-18h-18.048zm18.048 0h-9v5.824h18v-5.824zm0 5.824v9h5.888v-18h-5.888zm5.888 0h-9v17.984h18V26.408zm0 17.984v-9h-5.888v18h5.888zm-5.888 0h-9v5.76h18v-5.76zm0 5.76v-9h-18.048v18h18.048zm-17.408-6.4v9h16.768v-18h-16.768zm16.768 0h9V26.984h-18v16.768zm0-16.768v-9h-16.768v18h16.768zm-16.768 0h-9v16.768h18V26.984zm31.036 23.168h-9v9h9zm0-23.744v-9h-9v9zm5.824 0v9h9v-9zm0-5.824v-9h-9v9zm18.048 0h9v-9h-9zm0 5.824h-9v9h9zm5.888 0h9v-9h-9zm0 6.336v9h9v-9zm-6.528 0h-9v9h9zm0-5.76h9v-9h-9zm-16.768 0v-9h-9v9zm0 23.168v9h9v-9zm-6.464 0h9V26.408h-18v23.744zm0-23.744v9h5.824v-18h-5.824zm5.824 0h9v-5.824h-18v5.824zm0-5.824v9h18.048v-18h-18.048zm18.048 0h-9v5.824h18v-5.824zm0 5.824v9h5.888v-18h-5.888zm5.888 0h-9v6.336h18v-6.336zm0 6.336v-9h-6.528v18h6.528zm-6.528 0h9v-5.76h-18v5.76zm0-5.76v-9h-16.768v18h16.768zm-16.768 0h-9v23.168h18V26.984zm0 23.168v-9h-6.464v18h6.464z" mask="url(#c)"/>
  </g>
  <defs>
    <linearGradient id="b" x1="9.16" x2="837.16" y1="28.884" y2="28.884" gradientUnits="userSpaceOnUse">
      <stop stop-color="#ff4747"/>
      <stop offset=".163" stop-color="#ffaa3b"/>
      <stop offset=".317" stop-color="#e2ff3b"/>
      <stop offset=".476" stop-color="#4af03b"/>
      <stop offset=".615" stop-color="#5ff2ff"/>
      <stop offset=".865" stop-color="#2f55ff"/>
      <stop offset=".986" stop-color="#b637ff"/>
    </linearGradient>
    <filter id="a" width="845.51" height="78.736" x="0" y="0" color-interpolation-filters="sRGB" filterUnits="userSpaceOnUse">
      <feFlood flood-opacity="0" result="BackgroundImageFix"/>
      <feColorMatrix in="SourceAlpha" result="hardAlpha" values="0 0 0 0 0 0 0 0 0 0 0 0 0 0 0 0 0 0 127 0"/>
      <feOffset dy="4"/>
      <feGaussianBlur stdDeviation="2"/>
      <feComposite in2="hardAlpha" operator="out"/>
      <feColorMatrix values="0 0 0 0 0 0 0 0 0 0 0 0 0 0 0 0 0 0 0.25 0"/>
      <feBlend in2="BackgroundImageFix" result="effect1_dropShadow_1_2"/>
      <feBlend in="SourceGraphic" in2="effect1_dropShadow_1_2" result="shape"/>
    </filter>
  </defs>
</svg>
